<svg xmlns="http://www.w3.org/2000/svg" viewBox="0 0 120 120" role="img" aria-labelledby="title desc"><title id="title">WDompet</title><desc id="desc">Ikon dompet biru dengan koin emas</desc><defs><linearGradient id="bg" x1="12" y1="8" x2="108" y2="112" gradientUnits="userSpaceOnUse"><stop stop-color="#19c7d7"/><stop offset="1" stop-color="#2474df"/></linearGradient><linearGradient id="wallet" x1="28" y1="49" x2="93" y2="99" gradientUnits="userSpaceOnUse"><stop stop-color="#ffffff"/><stop offset="1" stop-color="#d9e9ff"/></linearGradient><linearGradient id="coin" x1="67" y1="20" x2="91" y2="45" gradientUnits="userSpaceOnUse"><stop stop-color="#ffe27a"/><stop offset="1" stop-color="#e9a92c"/></linearGradient></defs><rect x="8" y="8" width="104" height="104" rx="28" fill="url(#bg)"/><rect x="15" y="15" width="90" height="90" rx="23" fill="#ffffff" opacity=".08"/><circle cx="79" cy="32" r="13" fill="url(#coin)" stroke="#fff1a8" stroke-width="3"/><circle cx="65" cy="39" r="12" fill="#f5bd3d" stroke="#fff0a0" stroke-width="3"/><path d="M28 48c0-6 5-10 11-10h46c6 0 11 5 11 11v37c0 7-5 12-12 12H39c-7 0-11-5-11-12V48Z" fill="url(#wallet)"/><path d="M29 52h60c5 0 9 4 9 9v13H73c-8 0-14-6-14-14v-2c0-3 2-6 6-6h33" fill="#edf5ff"/><path d="M73 57h25v18H74c-5 0-9-4-9-9s3-9 8-9Z" fill="#c7ddff"/><circle cx="78" cy="66" r="3.5" fill="#2878d8"/></svg>